<svg id="Camada_1" data-name="Camada 1" xmlns="http://www.w3.org/2000/svg" viewBox="0 0 558.4 116.09"><defs><style>.cls-1{fill:#fff;}</style></defs><title>Prancheta 18</title><path class="cls-1" d="M121.07,116.09h-8.79L13.84,42.55V88.4q.29,1.69,1.25,7t2.05,11.21q1.1,5.9,1.76,9.48H.07q.66-3.59,1.76-9.48T3.88,95.4q1-5.31,1.17-7V29.66q0-.51-2-11.65L0,1.68H13.84l98.44,73.54V29.3Q112,27.69,111,22.38T109,11.13q-1.1-5.93-1.76-9.45H126q-.66,3.52-1.76,9.45t-2.05,11.21q-1,5.27-1.17,7Z"/><path class="cls-1" d="M177.32,116.09q-12,0-20.8-5.42a23.86,23.86,0,0,1-10.77-20.14,35.47,35.47,0,0,1,1.61-10.18A88.83,88.83,0,0,1,151,70.83a373,373,0,0,1,19.92-38.67q4.69-7.62,4.69-12.3c0-.19,0-.71-.07-1.54a6.89,6.89,0,0,0-1.61-3.3Q169.11,9.74,157,9.08h-1.76q-10.18,0-17.5,4l-4.39-8a45.9,45.9,0,0,1,22-5.05h2.05a99.42,99.42,0,0,1,15.23,1.39,35.16,35.16,0,0,1,17.58,7.47q10.4,10,10.4,23.44l-.07,2.27a53.19,53.19,0,0,1-3.22,13.33q-2.78,7.18-6.52,14.58a112.2,112.2,0,0,0-8.86,22.27,33.59,33.59,0,0,0-1.1,8.28,14.66,14.66,0,0,0,.88,5.64,7.31,7.31,0,0,0,1.76,2.64,11.75,11.75,0,0,0,5.49,2.42,9.1,9.1,0,0,0,2.05.22,22.2,22.2,0,0,0,7.76-1.76,95.62,95.62,0,0,0,30-19,167.4,167.4,0,0,0,17.36-18.9q9.59-19,17.76-36.18T276.42,1h36.84l-9.67,21.83-30.4,60.06-16.11,32.89H218.63q6.08-10.18,12.67-22.63a97.92,97.92,0,0,1-20.65,13.7,123.68,123.68,0,0,1-11.87,5.13A60.19,60.19,0,0,1,177.32,116.09Z"/><path class="cls-1" d="M434.11,115.8h-50l-5.64-19.26H307.84L302.2,115.8H279.57l8.57-11.21q8.72-11.43,11.5-15.45l37.57-67.68L320.36,1.39l45-.07,48.71,88q2.86,4,11.5,15.45Zm-58.3-28.05L343.14,28.86,310.47,87.74Z"/><path class="cls-1" d="M488.89,115.8A74.09,74.09,0,0,1,457.4,109a65.61,65.61,0,0,1-13.77-8.64q-17.87-14.94-19.12-36v-35l-5.05-28H462.3l-1.83,10q-3,16-3.22,17.94v48l.44,2.93a33.62,33.62,0,0,0,6.67,15.89Q472,106.27,487.5,107h1.39A66.09,66.09,0,0,0,517,100.89,52.09,52.09,0,0,0,537,84.7a37.29,37.29,0,0,0,7.51-22.6v-33l-5-27.69H558.4l-5.05,27.69v33a46.57,46.57,0,0,1-8.79,27.17,56.72,56.72,0,0,1-10.4,11.06,65.53,65.53,0,0,1-20.8,11.5A75.55,75.55,0,0,1,488.89,115.8Z"/></svg>